<svg xmlns="http://www.w3.org/2000/svg" version="1.1" xmlns:xlink="http://www.w3.org/1999/xlink" xmlns:svgjs="http://svgjs.dev/svgjs" viewBox="0 0 2400 800" opacity="1"><g fill="#ce8545" transform="matrix(1,0,0,1,0,-87.93289184570312)"><path d="M 0 325.1300708026808 Q 600 499.9249555100282 800 323.4865562347666 Q 1400 489.44932037288754 1600 316.86580711434993 Q 2200 465.6736446426056 2400 325.0670147417161 L 2400 800 L 0 800 L 0 318.88181320229626 Z" transform="matrix(1,0,0,1,0,37)" opacity="0.05"></path><path d="M 0 325.1300708026808 Q 600 499.9249555100282 800 323.4865562347666 Q 1400 489.44932037288754 1600 316.86580711434993 Q 2200 465.6736446426056 2400 325.0670147417161 L 2400 800 L 0 800 L 0 318.88181320229626 Z" transform="matrix(1,0,0,1,0,74)" opacity="0.24"></path><path d="M 0 325.1300708026808 Q 600 499.9249555100282 800 323.4865562347666 Q 1400 489.44932037288754 1600 316.86580711434993 Q 2200 465.6736446426056 2400 325.0670147417161 L 2400 800 L 0 800 L 0 318.88181320229626 Z" transform="matrix(1,0,0,1,0,111)" opacity="0.43"></path><path d="M 0 325.1300708026808 Q 600 499.9249555100282 800 323.4865562347666 Q 1400 489.44932037288754 1600 316.86580711434993 Q 2200 465.6736446426056 2400 325.0670147417161 L 2400 800 L 0 800 L 0 318.88181320229626 Z" transform="matrix(1,0,0,1,0,148)" opacity="0.62"></path><path d="M 0 325.1300708026808 Q 600 499.9249555100282 800 323.4865562347666 Q 1400 489.44932037288754 1600 316.86580711434993 Q 2200 465.6736446426056 2400 325.0670147417161 L 2400 800 L 0 800 L 0 318.88181320229626 Z" transform="matrix(1,0,0,1,0,185)" opacity="0.81"></path><path d="M 0 325.1300708026808 Q 600 499.9249555100282 800 323.4865562347666 Q 1400 489.44932037288754 1600 316.86580711434993 Q 2200 465.6736446426056 2400 325.0670147417161 L 2400 800 L 0 800 L 0 318.88181320229626 Z" transform="matrix(1,0,0,1,0,222)" opacity="1.00"></path></g></svg>